<svg aria-hidden="true" style="position: absolute; width: 0; height: 0; overflow: hidden;" version="1.1" xmlns="http://www.w3.org/2000/svg" xmlns:xlink="http://www.w3.org/1999/xlink">
<defs>
<symbol id="icon-facebook" viewBox="0 0 32 32">
<path d="M29 16c0-2.571-0.762-5.085-2.191-7.222s-3.459-3.804-5.834-4.788c-2.375-0.984-4.989-1.241-7.511-0.74s-4.838 1.74-6.656 3.558c-1.818 1.818-3.056 4.134-3.558 6.656s-0.244 5.136 0.74 7.511c0.984 2.375 2.65 4.406 4.788 5.834s4.651 2.191 7.222 2.191c3.447-0.003 6.752-1.374 9.189-3.811s3.808-5.742 3.811-9.189zM17 26.95v-7.95h3c0.265 0 0.52-0.105 0.707-0.293s0.293-0.442 0.293-0.707c0-0.265-0.105-0.52-0.293-0.707s-0.442-0.293-0.707-0.293h-3v-3c0-0.53 0.211-1.039 0.586-1.414s0.884-0.586 1.414-0.586h2c0.265 0 0.52-0.105 0.707-0.293s0.293-0.442 0.293-0.707c0-0.265-0.105-0.52-0.293-0.707s-0.442-0.293-0.707-0.293h-2c-1.060 0.003-2.075 0.426-2.825 1.175s-1.172 1.765-1.175 2.825v3h-3c-0.265 0-0.52 0.105-0.707 0.293s-0.293 0.442-0.293 0.707c0 0.265 0.105 0.52 0.293 0.707s0.442 0.293 0.707 0.293h3v7.95c-2.819-0.257-5.43-1.592-7.291-3.725s-2.827-4.902-2.698-7.73c0.129-2.828 1.343-5.497 3.389-7.453s4.768-3.047 7.599-3.047 5.552 1.091 7.599 3.047c2.047 1.956 3.261 4.625 3.389 7.453s-0.838 5.596-2.698 7.73-4.472 3.468-7.291 3.725z"></path>
</symbol>
<symbol id="icon-instagram" viewBox="0 0 32 32">
<path d="M16 2.881c4.275 0 4.781 0.019 6.462 0.094 1.563 0.069 2.406 0.331 2.969 0.55 0.744 0.288 1.281 0.638 1.837 1.194 0.563 0.563 0.906 1.094 1.2 1.838 0.219 0.563 0.481 1.412 0.55 2.969 0.075 1.688 0.094 2.194 0.094 6.463s-0.019 4.781-0.094 6.463c-0.069 1.563-0.331 2.406-0.55 2.969-0.288 0.744-0.637 1.281-1.194 1.837-0.563 0.563-1.094 0.906-1.837 1.2-0.563 0.219-1.413 0.481-2.969 0.55-1.688 0.075-2.194 0.094-6.463 0.094s-4.781-0.019-6.463-0.094c-1.563-0.069-2.406-0.331-2.969-0.55-0.744-0.288-1.281-0.637-1.838-1.194-0.563-0.563-0.906-1.094-1.2-1.837-0.219-0.563-0.481-1.413-0.55-2.969-0.075-1.688-0.094-2.194-0.094-6.463s0.019-4.781 0.094-6.463c0.069-1.563 0.331-2.406 0.55-2.969 0.288-0.744 0.638-1.281 1.194-1.838 0.563-0.563 1.094-0.906 1.838-1.2 0.563-0.219 1.412-0.481 2.969-0.55 1.681-0.075 2.188-0.094 6.463-0.094zM16 0c-4.344 0-4.887 0.019-6.594 0.094-1.7 0.075-2.869 0.35-3.881 0.744-1.056 0.412-1.95 0.956-2.837 1.85-0.894 0.888-1.438 1.781-1.85 2.831-0.394 1.019-0.669 2.181-0.744 3.881-0.075 1.713-0.094 2.256-0.094 6.6s0.019 4.887 0.094 6.594c0.075 1.7 0.35 2.869 0.744 3.881 0.413 1.056 0.956 1.95 1.85 2.837 0.887 0.887 1.781 1.438 2.831 1.844 1.019 0.394 2.181 0.669 3.881 0.744 1.706 0.075 2.25 0.094 6.594 0.094s4.888-0.019 6.594-0.094c1.7-0.075 2.869-0.35 3.881-0.744 1.050-0.406 1.944-0.956 2.831-1.844s1.438-1.781 1.844-2.831c0.394-1.019 0.669-2.181 0.744-3.881 0.075-1.706 0.094-2.25 0.094-6.594s-0.019-4.887-0.094-6.594c-0.075-1.7-0.35-2.869-0.744-3.881-0.394-1.063-0.938-1.956-1.831-2.844-0.887-0.887-1.781-1.438-2.831-1.844-1.019-0.394-2.181-0.669-3.881-0.744-1.712-0.081-2.256-0.1-6.6-0.1v0z"></path>
<path d="M16 7.781c-4.537 0-8.219 3.681-8.219 8.219s3.681 8.219 8.219 8.219 8.219-3.681 8.219-8.219c0-4.537-3.681-8.219-8.219-8.219zM16 21.331c-2.944 0-5.331-2.387-5.331-5.331s2.387-5.331 5.331-5.331c2.944 0 5.331 2.387 5.331 5.331s-2.387 5.331-5.331 5.331z"></path>
<path d="M26.462 7.456c0 1.060-0.859 1.919-1.919 1.919s-1.919-0.859-1.919-1.919c0-1.060 0.859-1.919 1.919-1.919s1.919 0.859 1.919 1.919z"></path>
</symbol>
<symbol id="icon-Arrow-1" viewBox="0 0 34 32">
<path d="M0.586 17.414c-0.781-0.781-0.781-2.047 0-2.828l12.728-12.728c0.781-0.781 2.047-0.781 2.828 0s0.781 2.047 0 2.828l-11.314 11.314 11.314 11.314c0.781 0.781 0.781 2.047 0 2.828s-2.047 0.781-2.828 0l-12.728-12.728zM34 18h-32v-4h32v4z"></path>
</symbol>
<symbol id="icon-arrow" viewBox="0 0 41 32">
<path d="M8.36 25.148c1.281-8.416 8.117-15.203 15.24-15.192 0.042 0.215 0.234 0.414 0.167 0.622-1.148 3.54 0.459 6.317 2.941 8.752 1.91 1.922 4.053 3.488 6.689 4.287 0.755 0.205 1.397 0.494 2.216 0.544 2.999 0.236 4.713-1.486 4.563-4.415-0.099-1.97-1.127-3.534-2.35-5.042-2.086-2.623-4.811-4.637-8.016-6-0.642-0.252-1.282-0.576-2.191-0.95 3.11-3.367 7.344-4.081 11.372-5.428-0.71-0.043-1.321-0.187-2.037-0.124-3.706 0.57-7.293 1.798-10.075 4.282-0.809 0.694-1.521 1.132-2.722 1.058-4.643-0.231-8.469 1.444-11.729 4.59-2.445 2.346-4.328 5.122-5.614 8.229-0.321 0.777-0.624 1.545-1.192 2.784-1.495-2.427-2.799-4.48-4.096-6.577-0.167 0.043-0.253 0.136-0.42 0.178-0.080 0.42-0.432 1.031-0.291 1.411 0.654 1.845 1.354 3.637 2.121 5.436 0.722 1.637 1.64 3.202 2.362 4.839 0.725 1.584 1.496 1.978 2.611 0.772 1.934-2.058 3.722-4.172 5.502-6.399 0.238-0.304 0.113-0.944 0.087-1.423-0.552 0.072-1.307 0.010-1.654 0.307-1.217 1.094-2.198 2.159-3.483 3.461zM25.852 9.889c5.295 1.226 9.343 3.912 11.736 8.677 0.484 1.038 0.845 2.317-0.186 3.050-0.687 0.489-1.967 0.598-2.889 0.436-3.516-0.746-6.11-2.874-8.244-5.606-1.47-1.948-1.944-3.995-0.417-6.556z"></path>
</symbol>
<symbol id="icon-shop" viewBox="0 0 31 32">
<path d="M1.467 12.878h28.293v-2.081h-28.293v2.081zM29.142 12.26v0.914h2.081v-0.914h-2.081zM25.783 29.528h-20.338v2.081h20.338v-2.081zM2.085 13.174v-0.914h-2.081v0.914h2.081zM6.031 29.891c-2.595-5.19-3.946-10.914-3.946-16.717h-2.081c0 6.127 1.426 12.169 4.167 17.649l1.861-0.932zM5.444 29.528c0.25 0 0.477 0.142 0.587 0.362l-1.861 0.932c0.119 0.236 0.3 0.435 0.525 0.574s0.484 0.213 0.748 0.213v-2.081zM25.196 29.891c0.055-0.109 0.138-0.201 0.242-0.265s0.223-0.098 0.345-0.098v2.081c0.541 0 1.032-0.304 1.274-0.787l-1.861-0.932zM29.142 13.174c0 5.803-1.353 11.526-3.946 16.717l1.861 0.932c2.74-5.48 4.167-11.523 4.167-17.649h-2.081zM29.76 12.878c-0.164 0-0.321-0.065-0.437-0.181s-0.181-0.273-0.181-0.437h2.081c0-0.388-0.154-0.76-0.429-1.035s-0.647-0.429-1.035-0.429v2.081zM1.467 10.797c-0.388 0-0.76 0.154-1.035 0.429s-0.429 0.647-0.429 1.035h2.081c0 0.164-0.065 0.321-0.181 0.437s-0.273 0.181-0.437 0.181v-2.081zM8.181 12.372l6.244-10.406-1.788-1.070-6.244 10.407 1.788 1.070zM16.802 1.966l6.244 10.406 1.786-1.070-6.244-10.407-1.786 1.070zM10.41 21.203h10.406v-2.081h-10.406v2.081z"></path>
</symbol>
<symbol id="icon-shops" viewBox="0 0 32 32">
<path d="M1.504 12.4h29.001v-2.133h-29.001v2.133zM29.87 11.766v0.937h2.133v-0.937h-2.133zM26.427 29.467h-20.847v2.133h20.847v-2.133zM2.137 12.703v-0.937h-2.133v0.937h2.133zM6.182 29.838c-2.66-5.32-4.045-11.187-4.045-17.135h-2.133c0 6.281 1.461 12.474 4.271 18.091l1.907-0.956zM5.58 29.467c0.256 0 0.489 0.145 0.602 0.371l-1.907 0.956c0.121 0.242 0.308 0.446 0.538 0.588s0.496 0.218 0.767 0.218v-2.133zM25.826 29.838c0.056-0.112 0.142-0.206 0.248-0.271s0.229-0.1 0.354-0.1v2.133c0.555 0 1.058-0.312 1.306-0.806l-1.907-0.956zM29.87 12.703c0 5.948-1.387 11.814-4.045 17.135l1.907 0.956c2.809-5.617 4.271-11.811 4.271-18.091h-2.133zM30.504 12.4c-0.168 0-0.329-0.067-0.448-0.186s-0.186-0.28-0.186-0.448h2.133c0-0.398-0.158-0.779-0.439-1.060s-0.663-0.439-1.060-0.439v2.133zM1.504 10.267c-0.398 0-0.779 0.158-1.060 0.439s-0.439 0.663-0.439 1.060h2.133c0 0.168-0.067 0.329-0.186 0.448s-0.28 0.186-0.448 0.186v-2.133zM8.386 11.882l6.4-10.667-1.833-1.097-6.4 10.667 1.833 1.096zM17.222 1.215l6.4 10.667 1.83-1.096-6.4-10.667-1.83 1.097zM10.67 20.933h10.667v-2.133h-10.667v2.133z"></path>
</symbol>
<symbol id="icon-service-arrow-slider" viewBox="0 0 82 32">
<path d="M81.414 17.414c0.781-0.781 0.781-2.047 0-2.828l-12.728-12.728c-0.781-0.781-2.047-0.781-2.828 0s-0.781 2.047 0 2.828l11.314 11.314-11.314 11.314c-0.781 0.781-0.781 2.047 0 2.828s2.047 0.781 2.828 0l12.728-12.728zM0 18h80v-4h-80v4z"></path>
</symbol>
<symbol id="icon-food-icon" viewBox="0 0 48 32">
<path d="M45.37 13.333c-0.052-1.992-2.005-3.973-5.918-5.333 0.267-0.547 0-0.726 0-1.333 0-2.356-2.048-4.667-4.603-4.667-0.576 0-0.778 0.473-1.315 0.667-0.86-0.97-2.435-1.333-3.945-1.333-0.684 0-1.354-0.232-1.973 0-1.076-0.891-2.414-1.333-3.945-1.333-2.063 0-4.235 1.21-5.26 2.667-2.426-0.265-4.432 0.263-5.26 2-2.034 0.036-3.69 1.536-3.945 3.333-4.239 1.378-6.52 3.252-6.575 5.333l-2.63 10v0.667c0 4.649 10.871 8 24.329 8s23.671-3.352 23.671-8l-2.63-10.667zM13.151 6c-0.034-0.002 0.034 0 0 0h0.658v-0.667c0.521-1.382 2.061-2 3.945-2 0.265 0 0.383-0.041 0.658 0h0.658c0.832-1.345 2.721-2.667 4.603-2.667 1.422 0 2.353 0.473 3.288 1.333l0.658 0.667v-0.667c0.578-0.252 1.308 0 1.973 0 1.378 0 2.617 0.424 3.288 1.333h0.658c0.52-0.227 0.747 0 1.315 0 2.090 0 3.945 1.449 3.945 3.333 0 0.618-0.308 0.805-0.658 1.333-0.001 0.001 0.001 0.665 0 0.667-0.027 0.040 0.028-0.039 0 0v0.667h0.658c1.651 0.228 2.63 1.13 2.63 2 0 0.523-0.316 0.431-0.658 0.667-0.055 0.038 0.048-0.029 0 0l-1.315 0.667 1.315 0.667c0.742 0.345 0.658 0.742 0.658 1.333 0 0.881-1.677 2-3.288 2-0.735 0.252-1.197 0.461-1.973 0.667-3.297 0.868-7.208 1.333-11.178 1.333-6.791 0-12.484-1.499-14.466-2-0.457-0.115-0.645 0.004-0.658 0-1.804 0-3.288-1.716-3.288-3.333s1.484-2.667 3.288-2.667c-0.109-0.010 0.113 0 0 0h0.658v-0.667c-0.212-0.39-0.658-0.908-0.658-1.333-0.002 0.025 0-0.025 0 0 0.168-1.438 1.617-2.667 3.288-2.667zM9.205 9.333c-0.003-0.018 0.002 0.018 0 0-0.004-0.028 0.004 0.028 0 0 0.025 0.147-0.044-0.143 0 0 0.001 0.002-0.001-0.002 0 0-2.144 0.129-3.945 1.996-3.945 4 0 2.069 2.361 3.971 4.603 4 0.103 0.029 0.304-0.089 0.658 0 2.025 0.512 7.59 2 14.466 2-0.001 0 0.001 0 0 0 4.966 0 9.224-0.664 13.151-2 1.944-0.027 4.603-1.159 4.603-2.667 0-0.185 0.048-0.49 0-0.667-0.143-0.529-0.799-0.962-1.315-1.333 0.512-0.46 0.658-0.755 0.658-1.333 0-0.041 0.003-0.625 0-0.667-0.002-0.035 0.004 0.033 0 0-0.005-0.040 0.008 0.039 0 0-0.008-0.038 0.010 0.038 0 0-0.002-0.009 0.002 0.009 0 0 1.58 0.945 2.63 1.619 2.63 2.667 0 3.18-8.721 6.667-21.041 6.667s-20.384-3.487-20.384-6.667c0-1.647 2.224-2.757 5.918-4zM23.671 31.333c-12.498 0-22.924-3.323-23.014-7.333l2.63-8.667c2.022 3.392 9.916 6 20.384 6s19.020-2.607 21.041-6l2.63 8.667c-0.090 4.010-11.173 7.333-23.671 7.333z"></path>
<path d="M30.904 24c0-1.13-0.88-2-1.973-2-1.057 0-1.921 0.919-1.973 2h-6.575c-0.052-1.081-0.915-2-1.973-2-1.091 0-1.973 0.87-1.973 2 0 0.659 0.189 0.959 0.658 1.333-0.468 0.375-0.658 1.342-0.658 2 0 1.13 0.881 2 1.973 2 1.058 0 1.921-0.919 1.973-2h6.575c0.052 1.081 0.916 2 1.973 2 1.092 0 1.973-0.87 1.973-2 0-0.658-0.19-1.625-0.658-2 0.467-0.375 0.658-0.674 0.658-1.333zM30.247 27.333c0 0.658-0.679 1.333-1.315 1.333-0.635 0-1.315-0.675-1.315-1.333-0.016 0.079 0-0.079 0 0v-0.667h-7.89v0.667c0-0.079 0.016 0.079 0 0 0 0.658-0.679 1.333-1.315 1.333s-1.315-0.675-1.315-1.333c0-0.657 0.679-1.333 1.315-1.333v-0.667c-0.636 0-1.315-0.677-1.315-1.333 0-0.658 0.679-1.333 1.315-1.333s1.315 0.675 1.315 1.333c0 0.080 0.016-0.079 0 0v0.667h7.89v-0.667c-0.016-0.080 0 0.079 0 0 0-0.658 0.68-1.333 1.315-1.333 0.636 0 1.315 0.675 1.315 1.333 0 0.657-0.679 1.333-1.315 1.333v0.667c0.637-0.001 1.315 0.676 1.315 1.333z"></path>
</symbol>
<symbol id="icon-service-arrow" viewBox="0 0 41 32">
<path d="M8.36 25.148c1.281-8.416 8.117-15.203 15.24-15.192 0.042 0.215 0.234 0.414 0.167 0.622-1.148 3.54 0.459 6.317 2.941 8.752 1.91 1.922 4.053 3.488 6.689 4.287 0.755 0.205 1.397 0.494 2.216 0.544 2.999 0.236 4.713-1.486 4.563-4.415-0.099-1.97-1.127-3.534-2.35-5.042-2.086-2.623-4.811-4.637-8.016-6-0.642-0.252-1.282-0.576-2.191-0.95 3.11-3.367 7.344-4.081 11.372-5.428-0.71-0.043-1.321-0.187-2.037-0.124-3.706 0.57-7.293 1.798-10.075 4.282-0.809 0.694-1.521 1.132-2.722 1.058-4.643-0.231-8.469 1.444-11.729 4.59-2.445 2.346-4.328 5.122-5.614 8.229-0.321 0.777-0.624 1.545-1.192 2.784-1.495-2.427-2.799-4.48-4.096-6.577-0.167 0.043-0.253 0.136-0.42 0.178-0.080 0.42-0.432 1.031-0.291 1.411 0.654 1.845 1.354 3.637 2.121 5.436 0.722 1.637 1.64 3.202 2.362 4.839 0.725 1.584 1.496 1.978 2.611 0.772 1.934-2.058 3.722-4.172 5.502-6.399 0.238-0.304 0.113-0.944 0.087-1.423-0.552 0.072-1.307 0.010-1.654 0.307-1.217 1.094-2.198 2.159-3.483 3.461zM25.852 9.889c5.295 1.226 9.343 3.912 11.736 8.677 0.484 1.038 0.845 2.317-0.186 3.050-0.687 0.489-1.967 0.598-2.889 0.436-3.516-0.746-6.11-2.874-8.244-5.606-1.47-1.948-1.944-3.995-0.417-6.556z"></path>
</symbol>
<symbol id="icon-check" viewBox="0 0 32 32">
<path d="M1.092 15.681c4.459 4.825 8.783 9.169 12.939 14.663 4.519-8.988 9.144-18.006 16.775-27.773l-2.056-0.942c-6.444 6.834-11.45 13.303-15.8 20.99-3.025-2.725-7.914-6.581-10.899-8.563l-0.959 1.625z"></path>
</symbol>
<symbol id="icon-menu" viewBox="0 0 32 32">
<path d="M29.333 24.007c0 0.733-0.595 1.327-1.327 1.327h-10.68c-0.352 0-0.689-0.14-0.938-0.389s-0.389-0.586-0.389-0.938c0-0.352 0.14-0.689 0.389-0.938s0.586-0.389 0.938-0.389h10.68c0.733 0 1.327 0.593 1.327 1.327zM29.333 16c0 0.733-0.595 1.327-1.327 1.327h-24.013c-0.352 0-0.689-0.14-0.938-0.389s-0.389-0.586-0.389-0.938c0-0.352 0.14-0.689 0.389-0.938s0.586-0.389 0.938-0.389h24.013c0.733 0 1.327 0.595 1.327 1.327zM28.007 9.32c0.352 0 0.689-0.14 0.938-0.389s0.389-0.586 0.389-0.938c0-0.352-0.14-0.689-0.389-0.938s-0.586-0.389-0.938-0.389h-16.013c-0.174 0-0.347 0.034-0.508 0.101s-0.307 0.164-0.43 0.288c-0.123 0.123-0.221 0.269-0.288 0.43s-0.101 0.333-0.101 0.508c0 0.174 0.034 0.347 0.101 0.508s0.164 0.307 0.288 0.43c0.123 0.123 0.269 0.221 0.43 0.288s0.333 0.101 0.508 0.101h16.013z"></path>
</symbol>
<symbol id="icon-symbol" viewBox="0 0 32 32">
<path d="M16 29.333c-1.822 0-3.544-0.35-5.167-1.051s-3.039-1.655-4.249-2.867c-1.212-1.211-2.167-2.627-2.867-4.249s-1.051-3.344-1.051-5.167c0-1.845 0.35-3.572 1.051-5.183s1.655-3.023 2.867-4.233c1.211-1.212 2.627-2.168 4.249-2.868s3.345-1.049 5.167-1.049c1.844 0 3.572 0.35 5.183 1.049s3.023 1.656 4.233 2.868c1.212 1.211 2.167 2.622 2.867 4.233s1.051 3.338 1.051 5.183v1.933c0 1.311-0.45 2.427-1.349 3.349-0.901 0.923-2.006 1.384-3.317 1.384-0.8 0-1.544-0.178-2.233-0.533s-1.256-0.822-1.7-1.4c-0.6 0.6-1.305 1.072-2.116 1.417s-1.684 0.516-2.617 0.516c-1.845 0-3.416-0.65-4.716-1.951s-1.951-2.872-1.951-4.716c0-1.845 0.65-3.417 1.951-4.717s2.872-1.949 4.716-1.949c1.844 0 3.417 0.65 4.717 1.949s1.949 2.873 1.949 4.717v1.933c0 0.644 0.2 1.15 0.6 1.516s0.867 0.551 1.4 0.551c0.533 0 1-0.184 1.4-0.551s0.6-0.872 0.6-1.516v-1.933c0-2.911-1.050-5.417-3.151-7.517s-4.605-3.149-7.516-3.149-5.417 1.050-7.517 3.149c-2.1 2.1-3.149 4.606-3.149 7.517s1.050 5.416 3.149 7.516c2.1 2.1 4.606 3.151 7.517 3.151h6.667v2.667h-6.667zM16 20c1.111 0 2.055-0.389 2.833-1.167s1.167-1.722 1.167-2.833c0-1.111-0.389-2.056-1.167-2.833s-1.722-1.167-2.833-1.167c-1.111 0-2.056 0.389-2.833 1.167s-1.167 1.722-1.167 2.833c0 1.111 0.389 2.056 1.167 2.833s1.722 1.167 2.833 1.167z"></path>
</symbol>
<symbol id="icon-phone" viewBox="0 0 32 32">
<path d="M27.833 29.333c-3.467 0-6.727-0.656-9.783-1.967s-5.723-3.105-8-5.383c-2.278-2.278-4.078-4.945-5.4-8s-1.984-6.329-1.984-9.817c-0.022-0.4 0.111-0.75 0.4-1.051s0.644-0.449 1.067-0.449h5.2c0.4 0 0.744 0.15 1.033 0.449s0.433 0.662 0.433 1.084c0 0.978 0.067 1.9 0.2 2.767s0.344 1.689 0.633 2.467c0.111 0.244 0.133 0.494 0.067 0.749s-0.2 0.495-0.4 0.717l-3.333 3.333c0.956 1.955 2.311 3.811 4.067 5.567s3.645 3.155 5.667 4.2l3.333-3.333c0.2-0.2 0.433-0.333 0.7-0.4s0.533-0.044 0.8 0.067c0.822 0.267 1.672 0.472 2.549 0.616s1.784 0.217 2.717 0.217c0.422 0 0.784 0.156 1.084 0.467 0.299 0.311 0.449 0.689 0.449 1.133v5.1c0 0.4-0.144 0.744-0.433 1.033s-0.645 0.433-1.067 0.433zM20.167 25.333c1 0.378 2.044 0.678 3.133 0.9s2.211 0.367 3.367 0.433v-2.867c-0.689-0.044-1.394-0.122-2.116-0.233-0.723-0.111-1.44-0.278-2.151-0.5l-2.233 2.267zM26.667 16c0-2.978-1.033-5.5-3.1-7.567s-4.589-3.1-7.567-3.1v-2.667c1.844 0 3.578 0.35 5.2 1.049s3.033 1.651 4.233 2.851 2.15 2.611 2.849 4.233c0.7 1.622 1.051 3.355 1.051 5.2h-2.667zM21.333 16c0-1.467-0.522-2.722-1.567-3.767s-2.3-1.567-3.767-1.567v-2.667c2.222 0 4.111 0.778 5.667 2.333s2.333 3.444 2.333 5.667h-2.667zM6.667 11.767l2.2-2.233c-0.178-0.644-0.328-1.322-0.451-2.033s-0.205-1.433-0.249-2.167h-2.8c0.044 1.067 0.178 2.133 0.4 3.2s0.522 2.144 0.9 3.233z"></path>
</symbol>
<symbol id="icon-pet" viewBox="0 0 32 32">
<path d="M6.467 29.333v-12.8l-0.367-0.367c-0.244-0.244-0.433-0.533-0.567-0.867s-0.2-0.678-0.2-1.033c0-0.355 0.067-0.694 0.2-1.016s0.322-0.606 0.567-0.851l4.367-4.4h5.333l5.333-5.333 2.733 2.733c0.889 0.889 1.578 1.894 2.067 3.016s0.733 2.317 0.733 3.584c0 1.267-0.244 2.461-0.733 3.584-0.489 1.122-1.178 2.127-2.067 3.016l-2.733 2.733v8h-14.667zM9.133 26.667h9.333v-6.433l3.5-3.5c0.644-0.645 1.144-1.367 1.5-2.167s0.533-1.655 0.533-2.567c0-0.889-0.184-1.733-0.551-2.533s-0.86-1.522-1.483-2.167l-0.833-0.867-4.233 4.233h-5.333l-0.767 0.767 2.233 2.233c0.622 0.622 1.106 1.339 1.451 2.149s0.516 1.662 0.516 2.551-0.167 1.739-0.5 2.551c-0.333 0.811-0.822 1.538-1.467 2.183l-3.9-3.9v7.467z"></path>
</symbol>
<symbol id="icon-people" viewBox="0 0 32 32">
<path d="M11.384 9.714c0-1.125 0.446-2.204 1.241-3s1.872-1.243 2.995-1.243c1.123 0 2.201 0.447 2.995 1.243s1.241 1.875 1.241 3-0.446 2.204-1.241 3c-0.794 0.796-1.872 1.243-2.995 1.243s-2.2-0.447-2.995-1.243c-0.794-0.796-1.241-1.875-1.241-3zM15.619 3.048c-1.765 0-3.458 0.702-4.706 1.953s-1.949 2.946-1.949 4.714 0.701 3.464 1.949 4.714c1.248 1.25 2.941 1.953 4.706 1.953s3.458-0.702 4.706-1.953c1.248-1.25 1.949-2.946 1.949-4.714s-0.701-3.464-1.949-4.714c-1.248-1.25-2.941-1.953-4.706-1.953zM5.333 22.442c0-0.964 0.382-1.889 1.063-2.571s1.604-1.065 2.567-1.065h13.311c0.963 0 1.886 0.383 2.567 1.065s1.063 1.607 1.063 2.571v0.274c-0.002 0.113-0.011 0.226-0.024 0.338-0.024 0.21-0.069 0.494-0.157 0.831-0.232 0.889-0.644 1.721-1.209 2.445-1.416 1.821-4.079 3.384-8.895 3.384s-7.478-1.564-8.895-3.384c-0.565-0.724-0.977-1.556-1.21-2.445-0.092-0.357-0.152-0.721-0.177-1.088-0.001-0.027-0.002-0.054-0.002-0.081v-0.028l-0.001-0.010v-0.236zM7.753 22.657v0.015c0.017 0.204 0.051 0.406 0.103 0.604 0.109 0.422 0.33 0.991 0.776 1.565 0.853 1.096 2.727 2.45 6.987 2.45s6.135-1.354 6.987-2.448c0.362-0.464 0.625-0.997 0.774-1.566 0.052-0.198 0.087-0.4 0.104-0.604l0.001-0.015v-0.216c0-0.321-0.128-0.63-0.354-0.857s-0.535-0.355-0.856-0.355h-13.312c-0.321 0-0.629 0.128-0.856 0.355s-0.354 0.536-0.354 0.857v0.216z"></path>
</symbol>
<symbol id="icon-shop-arrow" viewBox="0 0 32 32">
<path d="M9.533 28.133c-0.333-0.333-0.5-0.728-0.5-1.184s0.167-0.849 0.5-1.183l9.767-9.767-9.8-9.8c-0.311-0.311-0.467-0.7-0.467-1.167s0.167-0.867 0.5-1.2c0.333-0.333 0.728-0.5 1.184-0.5s0.849 0.167 1.183 0.5l11.2 11.233c0.133 0.133 0.228 0.278 0.284 0.433s0.083 0.322 0.083 0.5-0.027 0.344-0.083 0.5c-0.056 0.156-0.151 0.3-0.284 0.433l-11.233 11.233c-0.311 0.311-0.694 0.467-1.149 0.467s-0.851-0.167-1.184-0.5z"></path>
</symbol>
<symbol id="icon-icon-close" viewBox="0 0 32 32">
<path d="M6.654 5.32c-0.736 0-1.333 0.597-1.333 1.333 0 0.375 0.154 0.713 0.403 0.955l8.391 8.391-8.391 8.391c-0.253 0.243-0.41 0.584-0.41 0.962 0 0.736 0.597 1.333 1.333 1.333 0.378 0 0.719-0.157 0.961-0.41l0-0 8.391-8.391 8.391 8.391c0.243 0.253 0.584 0.41 0.962 0.41 0.736 0 1.333-0.597 1.333-1.333 0-0.378-0.157-0.719-0.41-0.961l-0-0-8.391-8.391 8.391-8.391c0.249-0.243 0.404-0.581 0.404-0.956 0-0.736-0.597-1.333-1.333-1.333-0.014 0-0.028 0-0.041 0.001l0.002-0c-0.36 0.011-0.683 0.163-0.916 0.403l-8.391 8.391-8.391-8.391c-0.242-0.249-0.581-0.404-0.956-0.404v0z"></path>
</symbol>
<symbol id="icon-shop-menu" viewBox="0 0 32 32">
<path d="M11.138 4.862c-0.26-0.26-0.682-0.26-0.943 0l-4.243 4.243c-0.26 0.26-0.26 0.682 0 0.943s0.682 0.26 0.943 0l3.771-3.771 3.771 3.771c0.26 0.26 0.683 0.26 0.943 0s0.26-0.682 0-0.943l-4.243-4.243zM10 5.333v21.333h1.333v-21.333h-1.333z"></path>
<path d="M20.862 27.138c0.26 0.26 0.683 0.26 0.943 0l4.243-4.243c0.26-0.26 0.26-0.683 0-0.943s-0.682-0.26-0.943 0l-3.771 3.771-3.771-3.771c-0.26-0.26-0.683-0.26-0.943 0s-0.26 0.682 0 0.943l4.243 4.243zM20.667 5.333v21.333h1.333v-21.333h-1.333z"></path>
</symbol>
</defs>
</svg>
